# xmcd
# 
# Track frame offsets:
#     150
#     27808
#     49588
#     72363
#     90345
#     115900
#     149045
# 
# Disc length: 2260
# 
# Revision: 0
# Processed by: cddbd v1.5.2PL0 Copyright (c) Steve Scherf et al.
# Submitted via: BonkEnc v1.0.8
# 
DISCID=5b08d207
DTITLE=Deep Purple - Machine Head
DYEAR=1972
DGENRE=Rock
TTITLE0=Highway Star
TTITLE1=Maybe I'm Leo
TTITLE2=Pictures Of Home
TTITLE3=Never Before
TTITLE4=Smoke On The Water
TTITLE5=Lazy
TTITLE6=Space Truckin'
EXTD=
EXTT0=
EXTT1=
EXTT2=
EXTT3=
EXTT4=
EXTT5=
EXTT6=
PLAYORDER=
